<svg xmlns="http://www.w3.org/2000/svg" xmlns:xlink="http://www.w3.org/1999/xlink" width="40" zoomAndPan="magnify" viewBox="0 0 30 30.000001" height="40" preserveAspectRatio="xMidYMid meet" version="1.0"><defs><clipPath id="cf5cc4ee1f"><path d="M 0.484375 0 L 29.515625 0 L 29.515625 29.03125 L 0.484375 29.03125 Z M 0.484375 0 " clip-rule="nonzero"/></clipPath><clipPath id="cb84dec541"><path d="M 2.824219 1.6875 L 28.226562 1.6875 L 28.226562 27.089844 L 2.824219 27.089844 Z M 2.824219 1.6875 " clip-rule="nonzero"/></clipPath><clipPath id="9efcf48a97"><path d="M 5.871094 6.476562 L 22.878906 6.476562 L 22.878906 19 L 5.871094 19 Z M 5.871094 6.476562 " clip-rule="nonzero"/></clipPath><clipPath id="0abacf68c4"><path d="M 10.425781 7.765625 C 8.03125 9.507812 7.378906 11.105469 7.089844 12.121094 C 6.796875 12.992188 6.507812 13.789062 6.652344 14.515625 C 6.796875 15.167969 7.234375 15.96875 7.742188 16.332031 C 8.175781 16.695312 8.976562 16.984375 9.554688 16.765625 C 10.28125 16.621094 11.082031 15.605469 11.515625 14.660156 C 12.097656 13.71875 12.316406 12.195312 12.316406 10.960938 C 12.316406 9.796875 12.167969 7.476562 11.734375 7.332031 C 11.371094 7.257812 10.5 8.347656 10.210938 9.144531 C 9.773438 10.378906 10.066406 13.136719 10.5 14.371094 C 10.789062 15.167969 11.152344 15.96875 11.734375 16.183594 C 12.316406 16.332031 13.257812 15.96875 13.839844 15.460938 C 14.566406 14.804688 15.144531 13.28125 15.433594 12.046875 C 15.652344 10.597656 15.582031 7.257812 15.144531 7.183594 C 14.855469 7.113281 13.621094 9.144531 13.476562 10.378906 C 13.257812 11.902344 14.054688 14.734375 14.78125 15.75 C 15.21875 16.402344 15.796875 16.695312 16.378906 16.910156 C 17.03125 17.054688 17.832031 17.054688 18.339844 16.765625 C 18.992188 16.476562 19.863281 15.675781 19.863281 15.097656 C 19.933594 14.589844 19.355469 13.644531 18.992188 13.574219 C 18.628906 13.574219 18.046875 14.371094 17.832031 14.878906 C 17.613281 15.386719 17.46875 16.039062 17.757812 16.621094 C 18.339844 17.566406 22.910156 18.726562 22.839844 18.945312 C 22.765625 19.089844 20.152344 18.726562 19.136719 18.289062 C 18.410156 18 17.613281 17.710938 17.324219 17.128906 C 16.886719 16.546875 16.816406 15.460938 17.105469 14.734375 C 17.394531 14.007812 18.628906 12.773438 19.210938 12.847656 C 19.789062 12.917969 20.660156 14.296875 20.660156 14.953125 C 20.660156 15.75 19.789062 16.765625 19.066406 17.203125 C 18.410156 17.636719 17.25 17.78125 16.378906 17.636719 C 15.582031 17.417969 14.710938 16.910156 14.128906 16.039062 C 13.257812 14.804688 12.386719 11.683594 12.75 10.015625 C 13.039062 8.636719 14.78125 6.460938 15.363281 6.53125 C 15.945312 6.675781 16.378906 9.652344 16.234375 11.175781 C 16.089844 12.773438 15.289062 15.167969 14.347656 16.039062 C 13.621094 16.765625 12.460938 17.128906 11.660156 16.984375 C 10.933594 16.765625 10.210938 15.675781 9.847656 14.660156 C 9.265625 13.28125 9.046875 10.304688 9.554688 8.855469 C 9.847656 7.910156 10.789062 6.824219 11.371094 6.675781 C 11.804688 6.605469 12.316406 6.824219 12.53125 7.113281 C 12.894531 7.546875 12.894531 8.273438 12.96875 9.074219 C 13.039062 10.378906 12.96875 12.992188 12.460938 14.371094 C 11.953125 15.53125 11.226562 16.765625 10.355469 17.203125 C 9.554688 17.566406 8.324219 17.566406 7.667969 17.203125 C 6.871094 16.839844 6.144531 15.675781 6 14.804688 C 5.78125 13.863281 6.074219 12.773438 6.433594 11.757812 C 6.796875 10.523438 7.597656 8.925781 8.324219 8.054688 C 8.832031 7.476562 9.484375 6.96875 9.992188 6.96875 C 10.355469 6.894531 10.933594 7.113281 10.933594 7.332031 C 11.007812 7.402344 10.425781 7.765625 10.425781 7.765625 " clip-rule="nonzero"/></clipPath><clipPath id="3bcb774a86"><path d="M 5.980469 19.371094 L 25.574219 19.371094 L 25.574219 21.039062 L 5.980469 21.039062 Z M 5.980469 19.371094 " clip-rule="nonzero"/></clipPath><clipPath id="96e4b7e2bc"><path d="M 6.21875 19.378906 C 23.273438 19.304688 25.234375 19.816406 25.523438 20.324219 C 25.667969 20.539062 25.378906 20.976562 25.378906 20.976562 C 25.378906 20.976562 25.523438 20.324219 25.523438 20.25 C 25.523438 20.25 25.523438 20.832031 25.304688 20.976562 C 24.796875 21.265625 23.128906 20.03125 21.386719 19.816406 C 18.195312 19.378906 9.917969 20.324219 7.597656 20.25 C 6.796875 20.25 6.144531 20.324219 6 20.105469 C 5.925781 19.960938 6.21875 19.378906 6.21875 19.378906 " clip-rule="nonzero"/></clipPath></defs><g clip-path="url(#cf5cc4ee1f)"><path fill="#ffffff" d="M 0.484375 0 L 29.515625 0 L 29.515625 29.03125 L 0.484375 29.03125 Z M 0.484375 0 " fill-opacity="1" fill-rule="nonzero"/><path fill="#a0967d" d="M 0.484375 0 L 29.515625 0 L 29.515625 29.03125 L 0.484375 29.03125 Z M 0.484375 0 " fill-opacity="1" fill-rule="nonzero"/></g><g clip-path="url(#cb84dec541)"><path fill="#f9efd5" d="M 15.652344 1.6875 C 8.574219 1.6875 2.824219 7.4375 2.824219 14.515625 C 2.824219 21.589844 8.574219 27.339844 15.652344 27.339844 C 22.726562 27.339844 28.476562 21.589844 28.476562 14.515625 C 28.476562 7.4375 22.726562 1.6875 15.652344 1.6875 Z M 15.652344 2.246094 C 22.433594 2.246094 27.917969 7.730469 27.917969 14.515625 C 27.917969 21.296875 22.433594 26.78125 15.652344 26.78125 C 8.867188 26.78125 3.382812 21.296875 3.382812 14.515625 C 3.382812 7.730469 8.867188 2.246094 15.652344 2.246094 Z M 15.652344 2.246094 " fill-opacity="1" fill-rule="nonzero"/></g><g clip-path="url(#9efcf48a97)"><g clip-path="url(#0abacf68c4)"><path fill="#f9efd5" d="M 3.097656 3.628906 L 25.796875 3.628906 L 25.796875 21.847656 L 3.097656 21.847656 Z M 3.097656 3.628906 " fill-opacity="1" fill-rule="nonzero"/></g></g><g clip-path="url(#3bcb774a86)"><g clip-path="url(#96e4b7e2bc)"><path fill="#f9efd5" d="M 3.097656 16.183594 L 28.488281 16.183594 L 28.488281 23.953125 L 3.097656 23.953125 Z M 3.097656 16.183594 " fill-opacity="1" fill-rule="nonzero"/></g></g></svg>