<svg xmlns="http://www.w3.org/2000/svg" xmlns:xlink="http://www.w3.org/1999/xlink" width="100" zoomAndPan="magnify" viewBox="0 0 75 74.999997" height="100" preserveAspectRatio="xMidYMid meet" version="1.0"><defs><clipPath id="c100278255"><path d="M 4.359375 4.359375 L 70.359375 4.359375 L 70.359375 70.359375 L 4.359375 70.359375 Z M 4.359375 4.359375 " clip-rule="nonzero"/></clipPath><clipPath id="88426fe774"><path d="M 14 16.726562 L 57.855469 16.726562 L 57.855469 49.082031 L 14 49.082031 Z M 14 16.726562 " clip-rule="nonzero"/></clipPath><clipPath id="54ab22bdf1"><path d="M 25.6875 20.0625 C 19.5 24.5625 17.8125 28.6875 17.0625 31.3125 C 16.3125 33.5625 15.5625 35.625 15.9375 37.5 C 16.3125 39.1875 17.4375 41.25 18.75 42.1875 C 19.875 43.125 21.9375 43.875 23.4375 43.3125 C 25.3125 42.9375 27.375 40.3125 28.5 37.875 C 30 35.4375 30.5625 31.5 30.5625 28.3125 C 30.5625 25.3125 30.1875 19.3125 29.0625 18.9375 C 28.125 18.75 25.875 21.5625 25.125 23.625 C 24 26.8125 24.75 33.9375 25.875 37.125 C 26.625 39.1875 27.5625 41.25 29.0625 41.8125 C 30.5625 42.1875 33 41.25 34.5 39.9375 C 36.375 38.25 37.875 34.3125 38.625 31.125 C 39.1875 27.375 39 18.75 37.875 18.5625 C 37.125 18.375 33.9375 23.625 33.5625 26.8125 C 33 30.75 35.0625 38.0625 36.9375 40.6875 C 38.0625 42.375 39.5625 43.125 41.0625 43.6875 C 42.75 44.0625 44.8125 44.0625 46.125 43.3125 C 47.8125 42.5625 50.0625 40.5 50.0625 39 C 50.25 37.6875 48.75 35.25 47.8125 35.0625 C 46.875 35.0625 45.375 37.125 44.8125 38.4375 C 44.25 39.75 43.875 41.4375 44.625 42.9375 C 46.125 45.375 57.9375 48.375 57.75 48.9375 C 57.5625 49.3125 50.8125 48.375 48.1875 47.25 C 46.3125 46.5 44.25 45.75 43.5 44.25 C 42.375 42.75 42.1875 39.9375 42.9375 38.0625 C 43.6875 36.1875 46.875 33 48.375 33.1875 C 49.875 33.375 52.125 36.9375 52.125 38.625 C 52.125 40.6875 49.875 43.3125 48 44.4375 C 46.3125 45.5625 43.3125 45.9375 41.0625 45.5625 C 39 45 36.75 43.6875 35.25 41.4375 C 33 38.25 30.75 30.1875 31.6875 25.875 C 32.4375 22.3125 36.9375 16.6875 38.4375 16.875 C 39.9375 17.25 41.0625 24.9375 40.6875 28.875 C 40.3125 33 38.25 39.1875 35.8125 41.4375 C 33.9375 43.3125 30.9375 44.25 28.875 43.875 C 27 43.3125 25.125 40.5 24.1875 37.875 C 22.6875 34.3125 22.125 26.625 23.4375 22.875 C 24.1875 20.4375 26.625 17.625 28.125 17.25 C 29.25 17.0625 30.5625 17.625 31.125 18.375 C 32.0625 19.5 32.0625 21.375 32.25 23.4375 C 32.4375 26.8125 32.25 33.5625 30.9375 37.125 C 29.625 40.125 27.75 43.3125 25.5 44.4375 C 23.4375 45.375 20.25 45.375 18.5625 44.4375 C 16.5 43.5 14.625 40.5 14.25 38.25 C 13.6875 35.8125 14.4375 33 15.375 30.375 C 16.3125 27.1875 18.375 23.0625 20.25 20.8125 C 21.5625 19.3125 23.25 18 24.5625 18 C 25.5 17.8125 27 18.375 27 18.9375 C 27.1875 19.125 25.6875 20.0625 25.6875 20.0625 " clip-rule="nonzero"/></clipPath><clipPath id="94a6864777"><path d="M 14.195312 50.042969 L 64.820312 50.042969 L 64.820312 54.351562 L 14.195312 54.351562 Z M 14.195312 50.042969 " clip-rule="nonzero"/></clipPath><clipPath id="a151cf1db7"><path d="M 14.8125 50.0625 C 58.875 49.875 63.9375 51.1875 64.6875 52.5 C 65.0625 53.0625 64.3125 54.1875 64.3125 54.1875 C 64.3125 54.1875 64.6875 52.5 64.6875 52.3125 C 64.6875 52.3125 64.6875 53.8125 64.125 54.1875 C 62.8125 54.9375 58.5 51.75 54 51.1875 C 45.75 50.0625 24.375 52.5 18.375 52.3125 C 16.3125 52.3125 14.625 52.5 14.25 51.9375 C 14.0625 51.5625 14.8125 50.0625 14.8125 50.0625 " clip-rule="nonzero"/></clipPath></defs><g clip-path="url(#c100278255)"><path fill="#a0967d" d="M 37.5 4.359375 C 19.214844 4.359375 4.359375 19.214844 4.359375 37.5 C 4.359375 55.785156 19.214844 70.640625 37.5 70.640625 C 55.785156 70.640625 70.640625 55.785156 70.640625 37.5 C 70.640625 19.214844 55.785156 4.359375 37.5 4.359375 Z M 37.5 5.800781 C 55.027344 5.800781 69.199219 19.972656 69.199219 37.5 C 69.199219 55.027344 55.027344 69.199219 37.5 69.199219 C 19.972656 69.199219 5.800781 55.027344 5.800781 37.5 C 5.800781 19.972656 19.972656 5.800781 37.5 5.800781 Z M 37.5 5.800781 " fill-opacity="1" fill-rule="nonzero"/></g><g clip-path="url(#88426fe774)"><g clip-path="url(#54ab22bdf1)"><path fill="#a0967d" d="M 6.75 9.375 L 65.394531 9.375 L 65.394531 56.4375 L 6.75 56.4375 Z M 6.75 9.375 " fill-opacity="1" fill-rule="nonzero"/></g></g><g clip-path="url(#94a6864777)"><g clip-path="url(#a151cf1db7)"><path fill="#a0967d" d="M 6.75 41.8125 L 72.34375 41.8125 L 72.34375 61.875 L 6.75 61.875 Z M 6.75 41.8125 " fill-opacity="1" fill-rule="nonzero"/></g></g></svg>